<?xml version="1.0" standalone="no"?>
<!DOCTYPE svg PUBLIC "-//W3C//DTD SVG 20010904//EN"
 "http://www.w3.org/TR/2001/REC-SVG-20010904/DTD/svg10.dtd">
<svg version="1.0" xmlns="http://www.w3.org/2000/svg"
 width="700.000000pt" height="700.000000pt" viewBox="0 0 700.000000 700.000000"
 preserveAspectRatio="xMidYMid meet">
<metadata>
Created by potrace 1.11, written by Peter Selinger 2001-2013
</metadata>
<g transform="translate(0.000000,700.000000) scale(0.100000,-0.100000)"
fill="#000000" stroke="none">
<path d="M3218 6994 c-2 -1 -46 -5 -98 -8 -319 -20 -621 -78 -845 -161 -343
-127 -594 -348 -739 -649 -112 -235 -191 -573 -221 -956 -4 -47 -9 -101 -10
-120 -12 -129 -20 -378 -19 -640 l1 -306 -50 -29 c-138 -81 -250 -256 -272
-425 -28 -209 37 -402 181 -543 110 -107 250 -148 414 -123 l45 7 48 -148 c26
-81 55 -164 64 -183 129 -284 283 -518 444 -679 150 -150 356 -275 579 -352
36 -12 103 -32 150 -44 l85 -22 1 -170 1 -169 -126 -26 c-69 -15 -162 -36
-206 -48 -44 -12 -87 -23 -95 -25 -8 -2 -28 -8 -43 -14 -41 -16 -47 -14 -47
14 0 14 -2 25 -5 25 -9 0 -180 -72 -226 -96 -26 -13 -49 -31 -51 -41 -3 -11
-29 -28 -64 -42 -65 -26 -341 -160 -389 -189 -16 -9 -52 -31 -80 -47 -276
-163 -524 -388 -622 -565 -34 -61 -48 -102 -62 -173 l-8 -47 2547 0 2547 0 -8
48 c-16 83 -39 140 -90 217 -170 261 -573 549 -1052 751 -49 20 -73 37 -83 56
-8 16 -19 28 -24 28 -5 0 -37 13 -72 29 -64 30 -165 71 -173 71 -3 0 -5 -11
-5 -25 0 -28 -6 -30 -46 -15 -46 18 -325 88 -400 101 l-71 12 2 166 c2 91 3
169 4 172 1 5 76 25 116 31 18 3 169 56 215 76 329 143 519 308 733 637 128
199 233 434 287 643 l11 43 47 -8 c291 -47 535 147 597 472 6 33 7 156 1 195
-28 179 -125 331 -271 425 -23 15 -30 26 -28 45 12 107 4 710 -13 910 -2 25
-6 74 -9 110 -6 73 -23 238 -30 288 -12 82 -17 108 -22 126 -3 11 -7 34 -9 51
-4 49 -52 232 -86 330 -127 368 -329 606 -655 769 -93 47 -284 120 -338 129
-17 3 -41 9 -55 15 -14 5 -44 12 -68 16 -24 3 -46 8 -50 10 -7 4 -54 12 -128
21 -22 3 -64 10 -94 15 -30 5 -95 12 -145 16 -49 3 -103 8 -120 11 -31 5 -693
12 -697 7z"/>
</g>
</svg>
